# Blender 4.0.1
# www.blender.org
o crossref_target
v 0.087632 0.869900 -0.087632
v 0.151783 0.779177 -0.151783
v 0.175263 0.655247 -0.175263
v 0.151783 0.531317 -0.151783
v 0.087632 0.440594 -0.087632
v 0.123930 0.869900 -0.000000
v 0.214653 0.779177 -0.000000
v 0.247860 0.655247 -0.000000
v 0.214653 0.531317 -0.000000
v 0.123930 0.440594 -0.000000
v 0.087632 0.869900 0.087632
v 0.151783 0.779177 0.151783
v 0.175263 0.655247 0.175263
v 0.151783 0.531317 0.151783
v 0.087632 0.440594 0.087632
v 0.000000 0.869900 0.123930
v 0.000000 0.779177 0.214653
v 0.000000 0.655247 0.247860
v 0.000000 0.531317 0.214653
v 0.000000 0.440594 0.123930
v -0.087632 0.869900 0.087632
v -0.151783 0.779177 0.151783
v -0.175263 0.655247 0.175263
v -0.151783 0.531317 0.151783
v -0.087632 0.440594 0.087632
v -0.123930 0.869900 -0.000000
v -0.214653 0.779177 -0.000000
v -0.247860 0.655247 -0.000000
v -0.214653 0.531317 -0.000000
v -0.123930 0.440594 -0.000000
v -0.087632 0.869900 -0.087632
v -0.151783 0.779177 -0.151783
v -0.175263 0.655247 -0.175263
v -0.151783 0.531317 -0.151783
v -0.087632 0.440594 -0.087632
v 0.000000 0.869900 -0.123930
v 0.000000 0.779177 -0.214653
v 0.000000 0.655247 -0.247860
v 0.000000 0.531317 -0.214653
v 0.000000 0.440594 -0.123930
vn 0.3715 -0.2403 -0.8968
vn 0.2811 0.6786 -0.6786
vn 0.2811 -0.6786 -0.6786
vn 0.3715 0.2403 -0.8968
vn 0.6786 -0.6786 -0.2811
vn 0.8968 0.2403 -0.3715
vn 0.8968 -0.2403 -0.3715
vn 0.6786 0.6786 -0.2811
vn 0.6786 -0.6786 0.2811
vn 0.8968 0.2403 0.3715
vn 0.8968 -0.2403 0.3715
vn 0.6786 0.6786 0.2811
vn 0.2811 -0.6786 0.6786
vn 0.3715 0.2403 0.8968
vn 0.3715 -0.2403 0.8968
vn 0.2811 0.6786 0.6786
vn -0.3715 0.2403 0.8968
vn -0.3715 -0.2403 0.8968
vn -0.2811 0.6786 0.6786
vn -0.2811 -0.6786 0.6786
vn -0.8968 -0.2403 0.3715
vn -0.6786 0.6786 0.2811
vn -0.6786 -0.6786 0.2811
vn -0.8968 0.2403 0.3715
vn -0.8968 -0.2403 -0.3715
vn -0.6786 0.6786 -0.2811
vn -0.6786 -0.6786 -0.2811
vn -0.8968 0.2403 -0.3715
vn -0.3715 -0.2403 -0.8968
vn -0.2811 0.6786 -0.6786
vn -0.2811 -0.6786 -0.6786
vn -0.3715 0.2403 -0.8968
vt 0.750000 0.333333
vt 0.750000 0.500000
vt 0.625000 0.500000
vt 0.625000 0.333333
vt 0.750000 0.666667
vt 0.750000 0.833333
vt 0.625000 0.833333
vt 0.625000 0.666667
vt 0.750000 0.166667
vt 0.625000 0.166667
vt 0.500000 0.333333
vt 0.500000 0.166667
vt 0.500000 0.666667
vt 0.500000 0.500000
vt 0.500000 0.833333
vt 0.375000 0.333333
vt 0.375000 0.166667
vt 0.375000 0.666667
vt 0.375000 0.500000
vt 0.375000 0.833333
vt 0.250000 0.333333
vt 0.250000 0.166667
vt 0.250000 0.666667
vt 0.250000 0.500000
vt 0.250000 0.833333
vt 0.125000 0.666667
vt 0.125000 0.500000
vt 0.125000 0.333333
vt 0.125000 0.833333
vt 0.125000 0.166667
vt 0.000000 0.500000
vt 0.000000 0.333333
vt 0.000000 0.833333
vt 0.000000 0.666667
vt 0.000000 0.166667
vt 1.000000 0.333333
vt 1.000000 0.500000
vt 0.875000 0.500000
vt 0.875000 0.333333
vt 1.000000 0.666667
vt 1.000000 0.833333
vt 0.875000 0.833333
vt 0.875000 0.666667
vt 1.000000 0.166667
vt 0.875000 0.166667
s 0
g all
f 39/1/1 38/2/1 3/3/1 4/4/1
f 37/5/2 36/6/2 1/7/2 2/8/2
f 40/9/3 39/1/3 4/4/3 5/10/3
f 38/2/4 37/5/4 2/8/4 3/3/4
g left
f 5/10/5 4/4/5 9/11/5 10/12/5
f 3/3/6 2/8/6 7/13/6 8/14/6
f 4/4/7 3/3/7 8/14/7 9/11/7
f 2/8/8 1/7/8 6/15/8 7/13/8
f 10/12/9 9/11/9 14/16/9 15/17/9
f 8/14/10 7/13/10 12/18/10 13/19/10
f 9/11/11 8/14/11 13/19/11 14/16/11
f 7/13/12 6/15/12 11/20/12 12/18/12
g all
f 15/17/13 14/16/13 19/21/13 20/22/13
f 13/19/14 12/18/14 17/23/14 18/24/14
f 14/16/15 13/19/15 18/24/15 19/21/15
f 12/18/16 11/20/16 16/25/16 17/23/16
f 18/24/17 17/23/17 22/26/17 23/27/17
f 19/21/18 18/24/18 23/27/18 24/28/18
f 17/23/19 16/25/19 21/29/19 22/26/19
f 20/22/20 19/21/20 24/28/20 25/30/20
g right
f 24/28/21 23/27/21 28/31/21 29/32/21
f 22/26/22 21/29/22 26/33/22 27/34/22
f 25/30/23 24/28/23 29/32/23 30/35/23
f 23/27/24 22/26/24 27/34/24 28/31/24
f 29/36/25 28/37/25 33/38/25 34/39/25
f 27/40/26 26/41/26 31/42/26 32/43/26
f 30/44/27 29/36/27 34/39/27 35/45/27
f 28/37/28 27/40/28 32/43/28 33/38/28
g all
f 34/39/29 33/38/29 38/2/29 39/1/29
f 32/43/30 31/42/30 36/6/30 37/5/30
f 35/45/31 34/39/31 39/1/31 40/9/31
f 33/38/32 32/43/32 37/5/32 38/2/32
